<?xml version="1.0" standalone="no"?>
<!DOCTYPE svg PUBLIC "-//W3C//DTD SVG 20010904//EN"
 "http://www.w3.org/TR/2001/REC-SVG-20010904/DTD/svg10.dtd">
<svg version="1.0" xmlns="http://www.w3.org/2000/svg"
 width="1600.000000pt" height="1600.000000pt" viewBox="0 0 1600.000000 1600.000000"
 preserveAspectRatio="xMidYMid meet">
<metadata>
Created by potrace 1.14, written by Peter Selinger 2001-2017
</metadata>
<g transform="translate(0.000000,1600.000000) scale(0.100000,-0.100000)"
fill="#000000" stroke="none">
<path d="M11652 13358 c69 -85 197 -256 290 -388 588 -839 993 -1769 1162
-2670 72 -385 91 -604 91 -1050 0 -382 -6 -487 -46 -765 -196 -1378 -947
-2589 -2064 -3332 -562 -374 -1187 -603 -1835 -674 -149 -16 -533 -16 -680 0
-951 105 -1832 612 -2312 1332 -241 360 -353 722 -335 1084 20 396 177 715
368 750 l36 7 7 -114 c27 -456 165 -851 415 -1188 128 -173 367 -385 572 -508
546 -328 1346 -431 2019 -262 943 237 1722 1013 2053 2045 102 317 147 611
147 956 0 884 -269 1714 -774 2384 -161 214 -417 483 -608 639 -622 507 -1363
823 -2193 935 -303 41 -707 53 -1023 30 -1265 -90 -2458 -689 -3359 -1688
-812 -899 -1316 -2080 -1404 -3290 -13 -184 -7 -730 11 -901 19 -188 41 -352
66 -495 235 -1342 910 -2516 2017 -3510 54 -48 99 -86 101 -84 2 2 -29 46 -70
97 -426 537 -816 1213 -1074 1857 -214 536 -356 1120 -412 1695 -17 181 -17
820 0 1000 116 1182 600 2229 1401 3028 707 705 1595 1141 2531 1243 149 16
533 16 680 0 956 -105 1848 -622 2321 -1345 236 -358 343 -714 326 -1071 -20
-396 -177 -715 -368 -750 l-36 -7 -8 119 c-47 800 -451 1432 -1130 1768 -544
269 -1259 340 -1875 185 -943 -237 -1722 -1013 -2053 -2045 -102 -317 -147
-611 -147 -956 0 -884 269 -1714 774 -2384 154 -206 394 -460 581 -616 648
-543 1428 -867 2345 -975 185 -21 662 -30 875 -15 1047 72 2044 486 2869 1189
148 126 405 379 536 527 808 915 1293 2060 1381 3264 13 184 7 730 -11 901
-48 477 -120 832 -249 1246 -239 763 -656 1495 -1225 2149 -172 197 -681 695
-711 695 -4 0 8 -19 27 -42z"/>
</g>
</svg>
