<?xml version="1.0" standalone="no"?>
<!DOCTYPE svg PUBLIC "-//W3C//DTD SVG 20010904//EN"
 "http://www.w3.org/TR/2001/REC-SVG-20010904/DTD/svg10.dtd">
<svg version="1.0" xmlns="http://www.w3.org/2000/svg"
 width="1600.000000pt" height="1600.000000pt" viewBox="0 0 1600.000000 1600.000000"
 preserveAspectRatio="xMidYMid meet">
<metadata>
Created by potrace 1.14, written by Peter Selinger 2001-2017
</metadata>
<g transform="translate(0.000000,1600.000000) scale(0.100000,-0.100000)"
fill="#000000" stroke="none">
<path d="M11669 13339 c101 -124 254 -335 367 -504 903 -1347 1295 -2803 1134
-4202 -129 -1122 -604 -2125 -1370 -2894 -713 -716 -1602 -1159 -2525 -1259
-974 -105 -1971 232 -2659 899 -335 326 -554 686 -650 1070 -34 134 -46 232
-46 379 0 422 167 785 376 819 18 3 34 2 34 -3 0 -5 5 -72 10 -149 77 -1082
820 -1829 1957 -1969 462 -57 905 -11 1303 136 1051 389 1829 1465 1931 2673
14 164 7 483 -15 687 -72 656 -281 1246 -629 1768 -608 914 -1598 1528 -2777
1725 -507 84 -1076 86 -1575 5 -473 -77 -904 -213 -1335 -422 -546 -264 -971
-568 -1410 -1007 -449 -449 -766 -892 -1050 -1466 -267 -541 -431 -1060 -514
-1635 -38 -255 -46 -356 -53 -640 -11 -459 25 -861 118 -1321 201 -1001 679
-1945 1395 -2754 125 -142 389 -408 526 -532 149 -135 175 -152 119 -83 -177
221 -420 572 -578 835 -747 1247 -1063 2555 -928 3837 154 1459 929 2755 2111
3531 556 365 1161 586 1799 659 143 16 569 16 710 0 767 -88 1491 -436 2000
-963 306 -316 499 -646 589 -1008 34 -134 46 -232 46 -379 0 -421 -167 -785
-375 -819 l-33 -5 -6 63 c-3 35 -8 104 -11 154 -30 437 -219 883 -515 1214
-339 378 -857 628 -1445 697 -585 68 -1095 -17 -1585 -266 -520 -265 -970
-721 -1273 -1290 -263 -495 -389 -1031 -373 -1590 24 -898 296 -1682 811
-2345 673 -865 1707 -1411 2920 -1542 202 -21 756 -24 950 -5 595 60 1134 211
1655 464 546 264 969 566 1411 1008 444 443 774 904 1053 1470 551 1113 701
2326 445 3591 -249 1235 -915 2374 -1923 3287 -151 137 -176 155 -117 81z"/>
</g>
</svg>
